<?xml version="1.0" ?><svg id="Layer_1" style="enable-background:new 0 0 512 512;" version="1.1" viewBox="0 0 512 512" xml:space="preserve" xmlns="http://www.w3.org/2000/svg" xmlns:xlink="http://www.w3.org/1999/xlink"><style type="text/css">
	.st0{fill:#DC6E79;}
	.st1{fill:#A1334B;}
	.st2{fill:#FFFFFF;}
	.st3{fill:#E46675;}
	.st4{fill:#F36C00;}
	.st5{fill:#C05600;}
	.st6{fill:#98B260;}
	.st7{fill:#738748;}
	.st8{fill:#A35BB4;}
	.st9{fill:#76418F;}
	.st10{fill:#DAAC01;}
	.st11{fill:#CD811C;}
	.st12{fill:#03ADAD;}
	.st13{fill:#04847D;}
	.st14{fill:#E64B3F;}
	.st15{fill:#973732;}
	.st16{fill:#2EC19C;}
	.st17{fill:#348969;}
</style><g><circle class="st16" cx="256" cy="256" r="256"/><path class="st17" d="M512,256c0-13.8-1.1-27.4-3.2-40.6L402.7,109.3H109.3v48.9l12.3,12.3h-12.3v232.2l106.1,106.1   c13.2,2.1,26.8,3.2,40.6,3.2C397.4,512,512,397.4,512,256z"/><g><g><path class="st2" d="M109.3,109.3v48.9h293.3v-48.9H109.3z M286.6,139.9H139.9v-12.2h146.7V139.9z M329.3,139.9h-12.2v-12.2h12.2     V139.9z M353.8,139.9h-12.2v-12.2h12.2V139.9z M378.2,139.9H366v-12.2h12.2V139.9z"/></g><g><path class="st2" d="M304.9,366c23.6,0,42.8-19.2,42.8-42.8c0-23.6-19.2-42.8-42.8-42.8c-23.6,0-42.8,19.2-42.8,42.8     C262.1,346.8,281.3,366,304.9,366z M274.3,317.1h24.4v-24.4H311v24.4h24.4v12.2H311v24.4h-12.2v-24.4h-24.4V317.1z"/></g><g><path class="st2" d="M109.3,402.7h293.3V170.4H109.3V402.7z M219.3,194.9c16.8,0,30.6,13.7,30.6,30.6S236.2,256,219.3,256     s-30.6-13.7-30.6-30.6S202.5,194.9,219.3,194.9z M152.1,301.6c0-19,12.3-35.5,30.5-41l7.9-2.3l28.8,28.8l28.8-28.8l7.9,2.3     c8.7,2.6,16.2,7.8,21.6,14.9c8-4.6,17.3-7.3,27.2-7.3c30.3,0,55,24.7,55,55c0,30.3-24.7,55-55,55c-23.9,0-44.2-15.3-51.8-36.7     h-101V301.6z"/></g></g></g></svg>